<svg xmlns="http://www.w3.org/2000/svg" version="1.1" xmlns:xlink="http://www.w3.org/1999/xlink" xmlns:svgjs="http://svgjs.dev/svgjs" width="1500" height="1500" viewBox="0 0 1500 1500"><rect width="1500" height="1500" fill="#8abcd7"></rect><g transform="matrix(0.6666666666666666,0,0,0.6666666666666666,249.39393939393938,438.5856950067477)"><svg viewBox="0 0 396 247" data-background-color="#8abcd7" preserveAspectRatio="xMidYMid meet" height="935" width="1500" xmlns="http://www.w3.org/2000/svg" xmlns:xlink="http://www.w3.org/1999/xlink"><g id="tight-bounds" transform="matrix(1,0,0,1,0.2400000000000091,-0.09999999999999432)"><svg viewBox="0 0 395.52 247.2" height="247.2" width="395.52"><g><svg></svg></g><g><svg viewBox="0 0 395.52 247.2" height="247.2" width="395.52"><g transform="matrix(1,0,0,1,75.54432,50.91319570681681)"><svg viewBox="0 0 244.43135999999998 145.37360858636637" height="145.37360858636637" width="244.43135999999998"><g><svg viewBox="0 0 244.43135999999998 145.37360858636637" height="145.37360858636637" width="244.43135999999998"><g><svg viewBox="0 0 244.43135999999998 145.37360858636637" height="145.37360858636637" width="244.43135999999998"><g><svg viewBox="0 0 244.43135999999998 145.37360858636637" height="145.37360858636637" width="244.43135999999998"><g id="textblocktransform"><svg viewBox="0 0 244.43135999999998 145.37360858636637" height="145.37360858636637" width="244.43135999999998" id="textblock"><g><svg viewBox="0 0 244.43135999999998 99.17279038932145" height="99.17279038932145" width="244.43135999999998"><g transform="matrix(1,0,0,1,0,0)"><svg width="244.43135999999998" viewBox="4.85 -36.48 89.89 36.48" height="99.17279038932145" data-palette-color="#ffffff"><path d="M9.68-35.83L9.68-20.13 11.5-20.13Q12.45-20.13 13.01-20.36 13.58-20.6 14.08-21.18L14.08-21.18 26-34.68Q26.55-35.3 27.06-35.56 27.58-35.83 28.38-35.83L28.38-35.83 32.5-35.83 18.85-20.4Q18.32-19.83 17.86-19.43 17.4-19.03 16.88-18.78L16.88-18.78Q17.57-18.55 18.1-18.1 18.63-17.65 19.2-16.98L19.2-16.98 33.45 0 29.25 0Q28.78 0 28.45-0.08 28.13-0.15 27.89-0.28 27.65-0.4 27.45-0.6 27.25-0.8 27.05-1.03L27.05-1.03 14.68-15.25Q14.4-15.55 14.16-15.76 13.93-15.98 13.61-16.13 13.3-16.28 12.89-16.34 12.48-16.4 11.88-16.4L11.88-16.4 9.68-16.4 9.68 0 4.85 0 4.85-35.83 9.68-35.83ZM38.2-25.33L42.65-25.33 42.65 0 38.2 0 38.2-25.33ZM43.65-33.27L43.65-33.27Q43.65-32.63 43.39-32.06 43.12-31.5 42.69-31.06 42.25-30.63 41.67-30.38 41.1-30.13 40.45-30.13L40.45-30.13Q39.8-30.13 39.24-30.38 38.67-30.63 38.24-31.06 37.8-31.5 37.55-32.06 37.3-32.63 37.3-33.27L37.3-33.27Q37.3-33.93 37.55-34.51 37.8-35.1 38.24-35.54 38.67-35.98 39.24-36.23 39.8-36.48 40.45-36.48L40.45-36.48Q41.1-36.48 41.67-36.23 42.25-35.98 42.69-35.54 43.12-35.1 43.39-34.51 43.65-33.93 43.65-33.27ZM55.4 0L47.2-25.33 50.7-25.33Q51.25-25.33 51.6-25.05 51.95-24.78 52.07-24.4L52.07-24.4 56.92-8.1Q57.12-7.2 57.3-6.36 57.47-5.53 57.6-4.67L57.6-4.67Q57.8-5.53 58.05-6.36 58.3-7.2 58.57-8.1L58.57-8.1 63.92-24.5Q64.05-24.88 64.36-25.13 64.67-25.38 65.15-25.38L65.15-25.38 67.07-25.38Q67.57-25.38 67.9-25.13 68.22-24.88 68.35-24.5L68.35-24.5 73.57-8.1Q73.85-7.23 74.06-6.38 74.27-5.53 74.47-4.7L74.47-4.7Q74.6-5.53 74.8-6.43 75-7.33 75.22-8.1L75.22-8.1 80.17-24.4Q80.3-24.8 80.65-25.06 81-25.33 81.47-25.33L81.47-25.33 84.82-25.33 76.62 0 73.1 0Q72.45 0 72.2-0.85L72.2-0.85 66.6-18.03Q66.4-18.6 66.27-19.19 66.15-19.78 66.02-20.35L66.02-20.35Q65.9-19.78 65.77-19.18 65.65-18.57 65.45-18L65.45-18 59.77-0.85Q59.5 0 58.75 0L58.75 0 55.4 0ZM89.29-25.33L93.74-25.33 93.74 0 89.29 0 89.29-25.33ZM94.74-33.27L94.74-33.27Q94.74-32.63 94.48-32.06 94.22-31.5 93.78-31.06 93.34-30.63 92.77-30.38 92.19-30.13 91.54-30.13L91.54-30.13Q90.89-30.13 90.33-30.38 89.77-30.63 89.33-31.06 88.89-31.5 88.64-32.06 88.39-32.63 88.39-33.27L88.39-33.27Q88.39-33.93 88.64-34.51 88.89-35.1 89.33-35.54 89.77-35.98 90.33-36.23 90.89-36.48 91.54-36.48L91.54-36.48Q92.19-36.48 92.77-36.23 93.34-35.98 93.78-35.54 94.22-35.1 94.48-34.51 94.74-33.93 94.74-33.27Z" opacity="1" transform="matrix(1,0,0,1,0,0)" fill="#ffffff" class="wordmark-text-0" data-fill-palette-color="primary" id="text-0"></path></svg></g></svg></g><g transform="matrix(1,0,0,1,0,122.58510605327089)"><svg viewBox="0 0 244.43135999999998 22.788502533095482" height="22.788502533095482" width="244.43135999999998"><g transform="matrix(1,0,0,1,0,0)"><svg width="244.43135999999998" viewBox="5 -39 532.5 49.65" height="22.788502533095482" data-palette-color="#ffffff"><path d="M29.15-34.45L29.15 0 22.8 0 8.8-29.25Q9.1-25.8 9.28-22.88 9.45-19.95 9.45-15.8L9.45-15.8 9.45 0 5 0 5-34.45 11.2-34.45 25.35-5.15Q25.2-6.45 24.95-9.7 24.7-12.95 24.7-15.65L24.7-15.65 24.7-34.45 29.15-34.45ZM48.8-26.95Q54.35-26.95 57.42-23.25 60.5-19.55 60.5-13.2L60.5-13.2Q60.5-9.1 59.1-5.98 57.7-2.85 55.05-1.13 52.4 0.6 48.75 0.6L48.75 0.6Q43.2 0.6 40.1-3.1 37-6.8 37-13.15L37-13.15Q37-17.25 38.4-20.38 39.8-23.5 42.45-25.23 45.1-26.95 48.8-26.95L48.8-26.95ZM48.8-23.25Q41.95-23.25 41.95-13.15L41.95-13.15Q41.95-3.1 48.75-3.1L48.75-3.1Q55.55-3.1 55.55-13.2L55.55-13.2Q55.55-23.25 48.8-23.25L48.8-23.25ZM79.55-26.95Q80.95-26.95 82.15-26.65L82.15-26.65 81.3-22.15Q80.09-22.45 79-22.45L79-22.45Q76.55-22.45 75.05-20.65 73.55-18.85 72.7-15.05L72.7-15.05 72.7 0 68.09 0 68.09-26.35 72.05-26.35 72.5-21Q73.55-23.95 75.34-25.45 77.15-26.95 79.55-26.95L79.55-26.95ZM98.94-4.25L100.69-1.2Q98.09 0.6 94.79 0.6L94.79 0.6Q91.44 0.6 89.57-1.33 87.69-3.25 87.69-6.9L87.69-6.9 87.69-22.8 83.09-22.8 83.09-26.35 87.69-26.35 87.69-32.3 92.29-32.85 92.29-26.35 98.54-26.35 98.04-22.8 92.29-22.8 92.29-7.1Q92.29-5.05 93.02-4.13 93.74-3.2 95.44-3.2L95.44-3.2Q96.99-3.2 98.94-4.25L98.94-4.25ZM117.84-26.95Q121.44-26.95 123.47-24.8 125.49-22.65 125.49-18.9L125.49-18.9 125.49 0 120.89 0 120.89-18.25Q120.89-21.05 119.82-22.2 118.74-23.35 116.69-23.35L116.69-23.35Q114.64-23.35 113.04-22.15 111.44-20.95 110.04-18.75L110.04-18.75 110.04 0 105.44 0 105.44-36.9 110.04-37.4 110.04-22.7Q113.14-26.95 117.84-26.95L117.84-26.95ZM154.64-13.95Q154.64-12.8 154.54-11.6L154.54-11.6 137.74-11.6Q138.04-7.25 139.94-5.2 141.84-3.15 144.84-3.15L144.84-3.15Q146.74-3.15 148.34-3.7 149.94-4.25 151.69-5.45L151.69-5.45 153.69-2.7Q149.49 0.6 144.49 0.6L144.49 0.6Q138.99 0.6 135.91-3 132.84-6.6 132.84-12.9L132.84-12.9Q132.84-17 134.16-20.18 135.49-23.35 137.96-25.15 140.44-26.95 143.79-26.95L143.79-26.95Q149.04-26.95 151.84-23.5 154.64-20.05 154.64-13.95L154.64-13.95ZM150.09-15L150.09-15.3Q150.09-19.2 148.54-21.25 146.99-23.3 143.89-23.3L143.89-23.3Q138.24-23.3 137.74-15L137.74-15 150.09-15ZM173.44-26.95Q174.84-26.95 176.04-26.65L176.04-26.65 175.19-22.15Q173.99-22.45 172.89-22.45L172.89-22.45Q170.44-22.45 168.94-20.65 167.44-18.85 166.59-15.05L166.59-15.05 166.59 0 161.99 0 161.99-26.35 165.94-26.35 166.39-21Q167.44-23.95 169.24-25.45 171.04-26.95 173.44-26.95L173.44-26.95ZM193.68-26.95Q197.28-26.95 199.31-24.8 201.33-22.65 201.33-18.9L201.33-18.9 201.33 0 196.73 0 196.73-18.25Q196.73-21.05 195.68-22.2 194.63-23.35 192.58-23.35L192.58-23.35Q190.48-23.35 188.88-22.15 187.28-20.95 185.88-18.7L185.88-18.7 185.88 0 181.28 0 181.28-26.35 185.23-26.35 185.63-22.45Q187.03-24.55 189.11-25.75 191.18-26.95 193.68-26.95L193.68-26.95ZM249.53-26.35L253.93-26.35 247.93 0 241.68 0 237.08-22.2 232.33 0 226.23 0 220.08-26.35 224.68-26.35 229.43-3.2 234.63-26.35 239.78-26.35 244.73-3.2 249.53-26.35ZM259.68-26.35L264.28-26.35 264.28 0 259.68 0 259.68-26.35ZM261.93-39Q263.38-39 264.28-38.1 265.18-37.2 265.18-35.85L265.18-35.85Q265.18-34.5 264.28-33.63 263.38-32.75 261.93-32.75L261.93-32.75Q260.53-32.75 259.63-33.63 258.73-34.5 258.73-35.85L258.73-35.85Q258.73-37.2 259.63-38.1 260.53-39 261.93-39L261.93-39ZM286.17-26.95Q289.77-26.95 291.8-24.8 293.82-22.65 293.82-18.9L293.82-18.9 293.82 0 289.22 0 289.22-18.25Q289.22-21.05 288.17-22.2 287.12-23.35 285.07-23.35L285.07-23.35Q282.97-23.35 281.37-22.15 279.77-20.95 278.37-18.7L278.37-18.7 278.37 0 273.77 0 273.77-26.35 277.72-26.35 278.12-22.45Q279.52-24.55 281.6-25.75 283.67-26.95 286.17-26.95L286.17-26.95ZM318.87-37.5L323.47-36.95 323.47 0 319.42 0 318.97-3.65Q317.67-1.65 315.72-0.53 313.77 0.6 311.37 0.6L311.37 0.6Q306.67 0.6 304.05-3.1 301.42-6.8 301.42-13.05L301.42-13.05Q301.42-17.1 302.67-20.25 303.92-23.4 306.27-25.18 308.62-26.95 311.77-26.95L311.77-26.95Q315.82-26.95 318.87-23.7L318.87-23.7 318.87-37.5ZM312.37-3.05Q314.47-3.05 315.97-4.03 317.47-5 318.87-6.95L318.87-6.95 318.87-19.85Q317.57-21.55 316.1-22.43 314.62-23.3 312.77-23.3L312.77-23.3Q309.72-23.3 308.05-20.75 306.37-18.2 306.37-13.15L306.37-13.15Q306.37-8.05 307.92-5.55 309.47-3.05 312.37-3.05L312.37-3.05ZM340.12-26.95Q342.82-26.95 344.97-26.2 347.12-25.45 349.07-23.95L349.07-23.95 347.12-21.05Q345.32-22.2 343.69-22.75 342.07-23.3 340.27-23.3L340.27-23.3Q338.02-23.3 336.72-22.38 335.42-21.45 335.42-19.85L335.42-19.85Q335.42-18.25 336.64-17.35 337.87-16.45 341.07-15.6L341.07-15.6Q345.47-14.5 347.64-12.6 349.82-10.7 349.82-7.4L349.82-7.4Q349.82-3.5 346.79-1.45 343.77 0.6 339.42 0.6L339.42 0.6Q333.42 0.6 329.47-2.85L329.47-2.85 331.92-5.65Q335.27-3.1 339.32-3.1L339.32-3.1Q341.92-3.1 343.44-4.17 344.97-5.25 344.97-7.1L344.97-7.1Q344.97-8.45 344.42-9.28 343.87-10.1 342.52-10.73 341.17-11.35 338.57-12.05L338.57-12.05Q334.37-13.15 332.49-15 330.62-16.85 330.62-19.7L330.62-19.7Q330.62-21.75 331.84-23.43 333.07-25.1 335.24-26.03 337.42-26.95 340.12-26.95L340.12-26.95ZM389.46-13.95Q389.46-12.8 389.36-11.6L389.36-11.6 372.56-11.6Q372.86-7.25 374.76-5.2 376.66-3.15 379.66-3.15L379.66-3.15Q381.56-3.15 383.16-3.7 384.76-4.25 386.51-5.45L386.51-5.45 388.51-2.7Q384.31 0.6 379.31 0.6L379.31 0.6Q373.81 0.6 370.74-3 367.66-6.6 367.66-12.9L367.66-12.9Q367.66-17 368.99-20.18 370.31-23.35 372.79-25.15 375.26-26.95 378.61-26.95L378.61-26.95Q383.86-26.95 386.66-23.5 389.46-20.05 389.46-13.95L389.46-13.95ZM384.91-15L384.91-15.3Q384.91-19.2 383.36-21.25 381.81-23.3 378.71-23.3L378.71-23.3Q373.06-23.3 372.56-15L372.56-15 384.91-15ZM415.01-26.35L406.91-14.1 416.06 0 410.51 0 404.06-11.15 397.51 0 392.31 0 401.51-13.9 393.36-26.35 398.76-26.35 404.26-16.7 409.81-26.35 415.01-26.35ZM433.16-26.95Q438.21-26.95 440.56-23.35 442.91-19.75 442.91-13.2L442.91-13.2Q442.91-7 440.21-3.2 437.51 0.6 432.56 0.6L432.56 0.6Q428.16 0.6 425.66-2.4L425.66-2.4 425.66 10.1 421.06 10.65 421.06-26.35 425.01-26.35 425.36-22.8Q426.81-24.8 428.86-25.88 430.91-26.95 433.16-26.95L433.16-26.95ZM431.46-3.15Q437.96-3.15 437.96-13.2L437.96-13.2Q437.96-23.3 432.01-23.3L432.01-23.3Q430.06-23.3 428.46-22.15 426.86-21 425.66-19.2L425.66-19.2 425.66-6.35Q426.66-4.8 428.16-3.98 429.66-3.15 431.46-3.15L431.46-3.15ZM462.21-26.95Q463.61-26.95 464.81-26.65L464.81-26.65 463.96-22.15Q462.76-22.45 461.66-22.45L461.66-22.45Q459.21-22.45 457.71-20.65 456.21-18.85 455.36-15.05L455.36-15.05 455.36 0 450.76 0 450.76-26.35 454.71-26.35 455.16-21Q456.21-23.95 458.01-25.45 459.81-26.95 462.21-26.95L462.21-26.95ZM489.95-13.95Q489.95-12.8 489.85-11.6L489.85-11.6 473.05-11.6Q473.35-7.25 475.25-5.2 477.15-3.15 480.15-3.15L480.15-3.15Q482.05-3.15 483.65-3.7 485.25-4.25 487-5.45L487-5.45 489-2.7Q484.8 0.6 479.8 0.6L479.8 0.6Q474.3 0.6 471.23-3 468.15-6.6 468.15-12.9L468.15-12.9Q468.15-17 469.48-20.18 470.8-23.35 473.28-25.15 475.75-26.95 479.1-26.95L479.1-26.95Q484.35-26.95 487.15-23.5 489.95-20.05 489.95-13.95L489.95-13.95ZM485.4-15L485.4-15.3Q485.4-19.2 483.85-21.25 482.3-23.3 479.2-23.3L479.2-23.3Q473.55-23.3 473.05-15L473.05-15 485.4-15ZM504.45-26.95Q507.15-26.95 509.3-26.2 511.45-25.45 513.4-23.95L513.4-23.95 511.45-21.05Q509.65-22.2 508.03-22.75 506.4-23.3 504.6-23.3L504.6-23.3Q502.35-23.3 501.05-22.38 499.75-21.45 499.75-19.85L499.75-19.85Q499.75-18.25 500.98-17.35 502.2-16.45 505.4-15.6L505.4-15.6Q509.8-14.5 511.98-12.6 514.15-10.7 514.15-7.4L514.15-7.4Q514.15-3.5 511.13-1.45 508.1 0.6 503.75 0.6L503.75 0.6Q497.75 0.6 493.8-2.85L493.8-2.85 496.25-5.65Q499.6-3.1 503.65-3.1L503.65-3.1Q506.25-3.1 507.78-4.17 509.3-5.25 509.3-7.1L509.3-7.1Q509.3-8.45 508.75-9.28 508.2-10.1 506.85-10.73 505.5-11.35 502.9-12.05L502.9-12.05Q498.7-13.15 496.83-15 494.95-16.85 494.95-19.7L494.95-19.7Q494.95-21.75 496.18-23.43 497.4-25.1 499.58-26.03 501.75-26.95 504.45-26.95L504.45-26.95ZM527.8-26.95Q530.5-26.95 532.65-26.2 534.8-25.45 536.75-23.95L536.75-23.95 534.8-21.05Q533-22.2 531.37-22.75 529.75-23.3 527.95-23.3L527.95-23.3Q525.7-23.3 524.4-22.38 523.1-21.45 523.1-19.85L523.1-19.85Q523.1-18.25 524.32-17.35 525.55-16.45 528.75-15.6L528.75-15.6Q533.15-14.5 535.32-12.6 537.5-10.7 537.5-7.4L537.5-7.4Q537.5-3.5 534.47-1.45 531.45 0.6 527.1 0.6L527.1 0.6Q521.1 0.6 517.15-2.85L517.15-2.85 519.6-5.65Q522.95-3.1 527-3.1L527-3.1Q529.6-3.1 531.12-4.17 532.65-5.25 532.65-7.1L532.65-7.1Q532.65-8.45 532.1-9.28 531.55-10.1 530.2-10.73 528.85-11.35 526.25-12.05L526.25-12.05Q522.05-13.15 520.17-15 518.3-16.85 518.3-19.7L518.3-19.7Q518.3-21.75 519.52-23.43 520.75-25.1 522.92-26.03 525.1-26.95 527.8-26.95L527.8-26.95Z" opacity="1" transform="matrix(1,0,0,1,0,0)" fill="#ffffff" class="slogan-text-1" data-fill-palette-color="secondary" id="text-1"></path></svg></g></svg></g></svg></g></svg></g></svg></g></svg></g></svg></g><g><path d="M0 123.6c0-68.262 55.338-123.6 123.6-123.6 35.635 0 67.748 15.08 90.304 39.207l-6.224 0c-21.545-21.466-51.263-34.735-84.08-34.735-65.793 0-119.128 53.336-119.128 119.128 0 65.793 53.336 119.128 119.128 119.128 32.817 0 62.534-13.269 84.08-34.735l6.224 0c-22.557 24.127-54.67 39.207-90.304 39.207-68.262 0-123.6-55.338-123.6-123.6z" fill="#ffffff" stroke="transparent" data-fill-palette-color="tertiary"></path></g></svg></g><defs></defs></svg><rect width="395.52" height="247.2" fill="none" stroke="none" visibility="hidden"></rect></g></svg></g></svg>